<mxfile host="app.diagrams.net" modified="2023-12-06T03:42:30.701Z" agent="Mozilla/5.0 (Windows NT 10.0; Win64; x64) AppleWebKit/537.36 (KHTML, like Gecko) Chrome/119.0.0.0 Safari/537.36" etag="Aztda5DbwYIEhLRKQVXw" version="22.1.5" type="device">
  <diagram id="C5RBs43oDa-KdzZeNtuy" name="Page-1">
    <mxGraphModel dx="1120" dy="478" grid="1" gridSize="10" guides="1" tooltips="1" connect="1" arrows="1" fold="1" page="1" pageScale="1" pageWidth="827" pageHeight="1169" math="0" shadow="0">
      <root>
        <mxCell id="WIyWlLk6GJQsqaUBKTNV-0" />
        <mxCell id="WIyWlLk6GJQsqaUBKTNV-1" parent="WIyWlLk6GJQsqaUBKTNV-0" />
        <mxCell id="6mDNWC-LGQarrIo2JmYS-0" value="" style="edgeStyle=orthogonalEdgeStyle;rounded=0;orthogonalLoop=1;jettySize=auto;html=1;entryX=0.5;entryY=0;entryDx=0;entryDy=0;" edge="1" parent="WIyWlLk6GJQsqaUBKTNV-1" source="6mDNWC-LGQarrIo2JmYS-1" target="6mDNWC-LGQarrIo2JmYS-27">
          <mxGeometry relative="1" as="geometry">
            <mxPoint x="425" y="180" as="targetPoint" />
          </mxGeometry>
        </mxCell>
        <mxCell id="6mDNWC-LGQarrIo2JmYS-1" value="start" style="ellipse;whiteSpace=wrap;html=1;" vertex="1" parent="WIyWlLk6GJQsqaUBKTNV-1">
          <mxGeometry x="365" y="20" width="120" height="80" as="geometry" />
        </mxCell>
        <mxCell id="6mDNWC-LGQarrIo2JmYS-2" value="" style="edgeStyle=orthogonalEdgeStyle;rounded=0;orthogonalLoop=1;jettySize=auto;html=1;exitX=0.5;exitY=1;exitDx=0;exitDy=0;" edge="1" parent="WIyWlLk6GJQsqaUBKTNV-1" source="6mDNWC-LGQarrIo2JmYS-27" target="6mDNWC-LGQarrIo2JmYS-5">
          <mxGeometry relative="1" as="geometry">
            <mxPoint x="425" y="260" as="sourcePoint" />
          </mxGeometry>
        </mxCell>
        <mxCell id="6mDNWC-LGQarrIo2JmYS-4" value="" style="edgeStyle=orthogonalEdgeStyle;rounded=0;orthogonalLoop=1;jettySize=auto;html=1;" edge="1" parent="WIyWlLk6GJQsqaUBKTNV-1" source="6mDNWC-LGQarrIo2JmYS-5" target="6mDNWC-LGQarrIo2JmYS-8">
          <mxGeometry relative="1" as="geometry" />
        </mxCell>
        <mxCell id="6mDNWC-LGQarrIo2JmYS-5" value="&lt;div style=&quot;background-color: rgb(31, 31, 31); line-height: 19px;&quot;&gt;&lt;font face=&quot;Consolas, Courier New, monospace&quot; color=&quot;#cccccc&quot;&gt;file = fopen(&quot;bt03.txt&quot;,&quot;w+&quot;)&lt;/font&gt;&lt;br&gt;&lt;/div&gt;" style="rounded=0;whiteSpace=wrap;html=1;" vertex="1" parent="WIyWlLk6GJQsqaUBKTNV-1">
          <mxGeometry x="303" y="260" width="245" height="60" as="geometry" />
        </mxCell>
        <mxCell id="6mDNWC-LGQarrIo2JmYS-6" value="" style="edgeStyle=orthogonalEdgeStyle;rounded=0;orthogonalLoop=1;jettySize=auto;html=1;" edge="1" parent="WIyWlLk6GJQsqaUBKTNV-1" source="6mDNWC-LGQarrIo2JmYS-8" target="6mDNWC-LGQarrIo2JmYS-9">
          <mxGeometry relative="1" as="geometry" />
        </mxCell>
        <mxCell id="6mDNWC-LGQarrIo2JmYS-29" style="edgeStyle=orthogonalEdgeStyle;rounded=0;orthogonalLoop=1;jettySize=auto;html=1;" edge="1" parent="WIyWlLk6GJQsqaUBKTNV-1" source="6mDNWC-LGQarrIo2JmYS-8" target="6mDNWC-LGQarrIo2JmYS-28">
          <mxGeometry relative="1" as="geometry" />
        </mxCell>
        <mxCell id="6mDNWC-LGQarrIo2JmYS-8" value="file == NULL" style="rhombus;whiteSpace=wrap;html=1;rounded=0;" vertex="1" parent="WIyWlLk6GJQsqaUBKTNV-1">
          <mxGeometry x="385" y="360" width="80" height="80" as="geometry" />
        </mxCell>
        <mxCell id="6mDNWC-LGQarrIo2JmYS-9" value="printf(&quot;Khong the mo file!&quot;)" style="shape=parallelogram;perimeter=parallelogramPerimeter;whiteSpace=wrap;html=1;fixedSize=1;" vertex="1" parent="WIyWlLk6GJQsqaUBKTNV-1">
          <mxGeometry x="548" y="370" width="182" height="60" as="geometry" />
        </mxCell>
        <mxCell id="6mDNWC-LGQarrIo2JmYS-12" value="true" style="text;html=1;strokeColor=none;fillColor=none;align=center;verticalAlign=middle;whiteSpace=wrap;rounded=0;" vertex="1" parent="WIyWlLk6GJQsqaUBKTNV-1">
          <mxGeometry x="480" y="370" width="60" height="30" as="geometry" />
        </mxCell>
        <mxCell id="6mDNWC-LGQarrIo2JmYS-13" value="false" style="text;html=1;strokeColor=none;fillColor=none;align=center;verticalAlign=middle;whiteSpace=wrap;rounded=0;" vertex="1" parent="WIyWlLk6GJQsqaUBKTNV-1">
          <mxGeometry x="370" y="450" width="60" height="30" as="geometry" />
        </mxCell>
        <mxCell id="6mDNWC-LGQarrIo2JmYS-27" value="&lt;div&gt;FILE *file;&lt;/div&gt;&lt;div&gt;char content[1000]&lt;span style=&quot;&quot;&gt;&lt;/span&gt;&lt;/div&gt;&lt;div&gt;&lt;div&gt;int numOfLines;&lt;/div&gt;&lt;div&gt;int i&lt;span style=&quot;&quot;&gt;&lt;/span&gt;&lt;/div&gt;&lt;/div&gt;" style="rounded=0;whiteSpace=wrap;html=1;" vertex="1" parent="WIyWlLk6GJQsqaUBKTNV-1">
          <mxGeometry x="332.5" y="150" width="185" height="60" as="geometry" />
        </mxCell>
        <mxCell id="6mDNWC-LGQarrIo2JmYS-32" value="" style="edgeStyle=orthogonalEdgeStyle;rounded=0;orthogonalLoop=1;jettySize=auto;html=1;" edge="1" parent="WIyWlLk6GJQsqaUBKTNV-1" source="6mDNWC-LGQarrIo2JmYS-28" target="6mDNWC-LGQarrIo2JmYS-31">
          <mxGeometry relative="1" as="geometry" />
        </mxCell>
        <mxCell id="6mDNWC-LGQarrIo2JmYS-28" value="&lt;div&gt;printf(&quot;Nhap so dong: &quot;);&lt;/div&gt;&lt;div&gt;scanf(&quot;%d&quot;,&amp;amp;numOfLines)&lt;span style=&quot;&quot;&gt;&lt;/span&gt;&lt;/div&gt;" style="shape=parallelogram;perimeter=parallelogramPerimeter;whiteSpace=wrap;html=1;fixedSize=1;" vertex="1" parent="WIyWlLk6GJQsqaUBKTNV-1">
          <mxGeometry x="338" y="490" width="175" height="60" as="geometry" />
        </mxCell>
        <mxCell id="6mDNWC-LGQarrIo2JmYS-34" value="" style="edgeStyle=orthogonalEdgeStyle;rounded=0;orthogonalLoop=1;jettySize=auto;html=1;" edge="1" parent="WIyWlLk6GJQsqaUBKTNV-1" source="6mDNWC-LGQarrIo2JmYS-31" target="6mDNWC-LGQarrIo2JmYS-33">
          <mxGeometry relative="1" as="geometry" />
        </mxCell>
        <mxCell id="6mDNWC-LGQarrIo2JmYS-41" value="" style="edgeStyle=orthogonalEdgeStyle;rounded=0;orthogonalLoop=1;jettySize=auto;html=1;" edge="1" parent="WIyWlLk6GJQsqaUBKTNV-1" source="6mDNWC-LGQarrIo2JmYS-31" target="6mDNWC-LGQarrIo2JmYS-40">
          <mxGeometry relative="1" as="geometry" />
        </mxCell>
        <mxCell id="6mDNWC-LGQarrIo2JmYS-31" value="i&amp;lt;numOfLines" style="rhombus;whiteSpace=wrap;html=1;" vertex="1" parent="WIyWlLk6GJQsqaUBKTNV-1">
          <mxGeometry x="363.5" y="600" width="124" height="80" as="geometry" />
        </mxCell>
        <mxCell id="6mDNWC-LGQarrIo2JmYS-36" value="" style="edgeStyle=orthogonalEdgeStyle;rounded=0;orthogonalLoop=1;jettySize=auto;html=1;" edge="1" parent="WIyWlLk6GJQsqaUBKTNV-1" source="6mDNWC-LGQarrIo2JmYS-33" target="6mDNWC-LGQarrIo2JmYS-35">
          <mxGeometry relative="1" as="geometry" />
        </mxCell>
        <mxCell id="6mDNWC-LGQarrIo2JmYS-33" value="&lt;div&gt;printf(&quot;Nhap noi dung dong %d: &quot;,i+1);&lt;/div&gt;&lt;div&gt;fflush(stdin);&lt;span style=&quot;&quot;&gt;&lt;/span&gt;&lt;/div&gt;&lt;div&gt;&lt;span style=&quot;&quot;&gt;&lt;span style=&quot;&quot;&gt;&lt;span style=&quot;white-space: pre;&quot;&gt;&amp;nbsp;&amp;nbsp;&amp;nbsp;&amp;nbsp;&lt;/span&gt;&lt;span style=&quot;white-space: pre;&quot;&gt;&amp;nbsp;&amp;nbsp;&amp;nbsp;&amp;nbsp;&lt;/span&gt;&lt;/span&gt;fgets(content,sizeof(content),stdin);&lt;/span&gt;&lt;/div&gt;&lt;div&gt;&lt;span style=&quot;&quot;&gt;&lt;span style=&quot;&quot;&gt;&lt;span style=&quot;white-space: pre;&quot;&gt;&amp;nbsp;&amp;nbsp;&amp;nbsp;&amp;nbsp;&lt;/span&gt;&lt;span style=&quot;white-space: pre;&quot;&gt;&amp;nbsp;&amp;nbsp;&amp;nbsp;&amp;nbsp;&lt;/span&gt;&lt;/span&gt;fprintf(file,&quot;%s&quot;,content)&lt;/span&gt;&lt;/div&gt;" style="shape=parallelogram;perimeter=parallelogramPerimeter;whiteSpace=wrap;html=1;fixedSize=1;" vertex="1" parent="WIyWlLk6GJQsqaUBKTNV-1">
          <mxGeometry x="548" y="610" width="262" height="60" as="geometry" />
        </mxCell>
        <mxCell id="6mDNWC-LGQarrIo2JmYS-38" style="edgeStyle=orthogonalEdgeStyle;rounded=0;orthogonalLoop=1;jettySize=auto;html=1;" edge="1" parent="WIyWlLk6GJQsqaUBKTNV-1">
          <mxGeometry relative="1" as="geometry">
            <mxPoint x="426" y="570" as="targetPoint" />
            <mxPoint x="906" y="610" as="sourcePoint" />
            <Array as="points">
              <mxPoint x="906" y="580" />
              <mxPoint x="906" y="580" />
            </Array>
          </mxGeometry>
        </mxCell>
        <mxCell id="6mDNWC-LGQarrIo2JmYS-35" value="i++" style="rounded=0;whiteSpace=wrap;html=1;" vertex="1" parent="WIyWlLk6GJQsqaUBKTNV-1">
          <mxGeometry x="840" y="610" width="120" height="60" as="geometry" />
        </mxCell>
        <mxCell id="6mDNWC-LGQarrIo2JmYS-39" value="true" style="text;html=1;align=center;verticalAlign=middle;resizable=0;points=[];autosize=1;strokeColor=none;fillColor=none;" vertex="1" parent="WIyWlLk6GJQsqaUBKTNV-1">
          <mxGeometry x="490" y="610" width="40" height="30" as="geometry" />
        </mxCell>
        <mxCell id="6mDNWC-LGQarrIo2JmYS-44" value="" style="edgeStyle=orthogonalEdgeStyle;rounded=0;orthogonalLoop=1;jettySize=auto;html=1;" edge="1" parent="WIyWlLk6GJQsqaUBKTNV-1" source="6mDNWC-LGQarrIo2JmYS-40" target="6mDNWC-LGQarrIo2JmYS-43">
          <mxGeometry relative="1" as="geometry" />
        </mxCell>
        <mxCell id="6mDNWC-LGQarrIo2JmYS-40" value="fclose(file)" style="rounded=0;whiteSpace=wrap;html=1;" vertex="1" parent="WIyWlLk6GJQsqaUBKTNV-1">
          <mxGeometry x="365" y="750" width="120" height="60" as="geometry" />
        </mxCell>
        <mxCell id="6mDNWC-LGQarrIo2JmYS-42" value="false" style="text;html=1;align=center;verticalAlign=middle;resizable=0;points=[];autosize=1;strokeColor=none;fillColor=none;" vertex="1" parent="WIyWlLk6GJQsqaUBKTNV-1">
          <mxGeometry x="425" y="700" width="50" height="30" as="geometry" />
        </mxCell>
        <mxCell id="6mDNWC-LGQarrIo2JmYS-46" value="" style="edgeStyle=orthogonalEdgeStyle;rounded=0;orthogonalLoop=1;jettySize=auto;html=1;" edge="1" parent="WIyWlLk6GJQsqaUBKTNV-1" source="6mDNWC-LGQarrIo2JmYS-43" target="6mDNWC-LGQarrIo2JmYS-45">
          <mxGeometry relative="1" as="geometry" />
        </mxCell>
        <mxCell id="6mDNWC-LGQarrIo2JmYS-43" value="printf(&quot;Chuoi da duoc ghi vao file!&quot;)" style="shape=parallelogram;perimeter=parallelogramPerimeter;whiteSpace=wrap;html=1;fixedSize=1;" vertex="1" parent="WIyWlLk6GJQsqaUBKTNV-1">
          <mxGeometry x="348" y="860" width="155" height="60" as="geometry" />
        </mxCell>
        <mxCell id="6mDNWC-LGQarrIo2JmYS-45" value="end" style="ellipse;whiteSpace=wrap;html=1;" vertex="1" parent="WIyWlLk6GJQsqaUBKTNV-1">
          <mxGeometry x="366" y="960" width="120" height="80" as="geometry" />
        </mxCell>
      </root>
    </mxGraphModel>
  </diagram>
</mxfile>
